#N canvas 177 23 934 522 10;
#X obj 233 459 dac~;
#X obj 255 393 line~;
#X msg 255 373 \$1 100;
#X obj 237 425 *~;
#X text 253 331 level;
#X obj 275 44 hsl 100 15 50 100 0 0 empty empty empty -2 -8 0 10 -262144
-1 -1 3346 1;
#X obj 272 64 mtof;
#X text 305 21 MIDI Note;
#X msg 272 20 77;
#X text 436 379 feedbackFM~;
#X text 438 397 left inlet: carrier frequency;
#X text 438 412 right inlet: feedback FM coefficient B;
#X obj 368 96 hsl 100 15 0 0.99999 0 0 empty empty empty -2 -8 0 10
-262144 -1 -1 9900 1;
#X msg 365 72 0.99;
#X text 405 73 feedback FM ceofficient (B);
#X obj 88 43 bng 15 250 50 0 empty empty empty 17 7 0 10 -262144 -1
-1;
#X obj 172 144 lop~ 4000;
#N canvas 0 23 450 300 impulse 0;
#X obj 77 35 inlet;
#X obj 83 208 outlet~;
#X msg 77 94 1;
#X obj 77 57 b;
#X obj 120 58 del 2;
#X msg 120 93 0;
#X obj 78 120 sig~;
#X obj 81 175 *~;
#X obj 100 149 biquad~ 0 0 1 -1 0;
#X connect 0 0 3 0;
#X connect 2 0 6 0;
#X connect 3 0 2 0;
#X connect 3 0 4 0;
#X connect 4 0 5 0;
#X connect 5 0 6 0;
#X connect 6 0 7 0;
#X connect 6 0 8 0;
#X connect 7 0 1 0;
#X connect 8 0 7 1;
#X restore 172 114 pd impulse;
#X text 439 427 audio at left inlet is ignored for now but should be
an impulse to start off the signal and add an envelope function;
#X obj 258 349 hsl 100 15 0 1 0 0 empty empty empty -2 -8 0 10 -262144
-1 -1 2800 1;
#X obj 219 342 *~;
#X obj 90 190 delay 1000;
#X msg 90 218 0 1000;
#X obj 90 259 line~;
#X text 168 97 excitation;
#X text 38 169 envelope;
#X msg 17 190 0.999 10;
#X obj 237 250 modalSynthesis~;
#X floatatom 278 101 5 0 0 0 - - -, f 5;
#X obj 461 242 osc~;
#X obj 326 428 *~;
#X connect 1 0 3 1;
#X connect 2 0 1 0;
#X connect 3 0 0 0;
#X connect 5 0 6 0;
#X connect 6 0 27 0;
#X connect 6 0 28 0;
#X connect 8 0 5 0;
#X connect 12 0 27 1;
#X connect 13 0 12 0;
#X connect 15 0 17 0;
#X connect 15 0 26 0;
#X connect 15 0 21 0;
#X connect 16 0 27 0;
#X connect 17 0 16 0;
#X connect 19 0 2 0;
#X connect 20 0 3 0;
#X connect 21 0 22 0;
#X connect 22 0 23 0;
#X connect 23 0 20 0;
#X connect 23 0 30 0;
#X connect 26 0 23 0;
#X connect 27 0 20 1;
#X connect 28 0 29 0;
#X connect 29 0 30 1;
#X connect 30 0 0 1;
