#N canvas 218 105 934 522 10;
#X obj 237 459 dac~;
#X obj 255 393 line~;
#X msg 255 373 \$1 100;
#X obj 237 425 *~;
#X text 253 331 level;
#X obj 240 72 hsl 100 15 50 100 0 0 empty empty empty -2 -8 0 10 -262144
-1 -1 1046 1;
#X obj 237 92 mtof;
#X text 270 48 MIDI Note;
#X msg 237 48 77;
#X obj 368 96 hsl 100 15 0 0.99999 0 0 empty empty empty -2 -8 0 10
-262144 -1 -1 9900 1;
#X obj 113 67 bng 15 250 50 0 empty empty empty 17 7 0 10 -262144 -1
-1;
#X obj 258 349 hsl 100 15 0 1 0 0 empty empty empty -2 -8 0 10 -262144
-1 -1 4800 1;
#X obj 237 250 modalSynthesis~;
#X floatatom 243 129 5 0 0 0 - - -, f 5;
#X text 439 386 modal synthesis;
#X msg 365 72 1;
#X obj 418 151 hsl 100 15 0.1 5 0 0 empty empty empty -2 -8 0 10 -262144
-1 -1 8200 1;
#X msg 415 127 1;
#X msg 461 252 open test.wav;
#X msg 487 275 start;
#X msg 499 299 stop;
#X obj 434 322 writesf~;
#X text 59 47 bang to initialize;
#X floatatom 424 177 5 0 0 0 - - -, f 5;
#X floatatom 370 119 5 0 0 0 - - -, f 5;
#X text 440 425 middle inlet: A // inital amplitude envelope value
;
#X text 439 442 right inlet: T60 // time for amplitude envelope to
decay to -60dB;
#X text 438 407 left inlet: modal frequency and bang to initialize
;
#X text 396 73 A;
#X text 446 128 T60;
#X text 235 30 modal frequency;
#X connect 1 0 3 1;
#X connect 2 0 1 0;
#X connect 3 0 0 0;
#X connect 5 0 6 0;
#X connect 6 0 12 0;
#X connect 6 0 13 0;
#X connect 8 0 5 0;
#X connect 9 0 12 1;
#X connect 9 0 24 0;
#X connect 10 0 12 0;
#X connect 11 0 2 0;
#X connect 12 0 3 0;
#X connect 12 0 21 0;
#X connect 15 0 9 0;
#X connect 16 0 12 2;
#X connect 16 0 23 0;
#X connect 17 0 16 0;
#X connect 18 0 21 0;
#X connect 19 0 21 0;
#X connect 20 0 21 0;
