#N canvas 658 173 511 402 10;
#N canvas 42 114 1035 601 singleSampleDelays 1;
#X obj 26 144 inlet~;
#X obj 595 42 block~ 1;
#X obj 589 129 t f b;
#X obj 625 157 samplerate~;
#X obj 589 181 /;
#X floatatom 599 204 5 0 0 0 - - -, f 5;
#X obj 589 107 r f1;
#X obj 109 67 *~;
#X obj 367 206 *~;
#X obj 94 205 *~;
#X obj 332 74 *~;
#X obj 213 151 clip~ 0.1 2;
#X obj 215 107 *~ -0.5;
#X obj 215 129 +~ 1.5;
#X obj 317 327 *~ 0;
#X obj 381 326 *~ 0;
#X obj 317 366 +~;
#X obj 94 551 -~;
#X obj 405 570 +~;
#X obj 94 529 *~;
#X obj 136 531 *~;
#X obj 300 511 *~;
#X obj 343 511 *~;
#X obj 316 467 cos~;
#X obj 353 446 -~ 0.25;
#X obj 353 468 cos~;
#X obj 317 424 +~ 0;
#X obj 162 677 outlet~;
#X obj 181 622 +~ 1e-07;
#X obj 163 594 clip~ -100 100;
#X obj 405 599 clip~ -100 100;
#X obj 317 299 *~;
#X obj 381 300 *~;
#X obj 338 279 r B1;
#X obj 402 274 r B2;
#X text 592 62 sample-by-sample processing;
#X text 589 226 f1 * T;
#X obj 95 40 delread~ re1 0;
#X obj 367 41 delread~ im1 0;
#X obj 405 628 delwrite~ im1 100;
#X obj 180 648 delwrite~ re1 100;
#X obj 276 113 r g;
#X obj 382 173 r g, f 4;
#X obj 11 613 writesf~;
#X msg 38 272 open decayingImpulse1.wav;
#X msg 68 304 start;
#X msg 128 320 stop;
#X obj 121 165 r g;
#X text 403 445 sin;
#X text 389 469 i think the 2pi happens here in the cos~ object;
#X msg 212 285 open cosMinusSin;
#X text 291 137 this section keeps it from clicking?;
#X connect 0 0 9 0;
#X connect 2 0 4 0;
#X connect 2 1 3 0;
#X connect 3 0 4 1;
#X connect 4 0 5 0;
#X connect 4 0 26 1;
#X connect 4 0 31 1;
#X connect 4 0 32 1;
#X connect 6 0 2 0;
#X connect 7 0 12 0;
#X connect 8 0 20 0;
#X connect 8 0 22 0;
#X connect 8 0 32 0;
#X connect 9 0 19 0;
#X connect 9 0 21 0;
#X connect 9 0 31 0;
#X connect 10 0 12 0;
#X connect 11 0 9 1;
#X connect 12 0 13 0;
#X connect 13 0 11 0;
#X connect 14 0 16 0;
#X connect 15 0 16 1;
#X connect 16 0 26 0;
#X connect 17 0 43 0;
#X connect 17 0 40 0;
#X connect 17 0 27 0;
#X connect 18 0 30 0;
#X connect 19 0 17 0;
#X connect 20 0 17 1;
#X connect 21 0 18 0;
#X connect 22 0 18 1;
#X connect 23 0 19 1;
#X connect 23 0 22 1;
#X connect 24 0 25 0;
#X connect 25 0 20 1;
#X connect 25 0 21 1;
#X connect 26 0 24 0;
#X connect 26 0 23 0;
#X connect 28 0 40 0;
#X connect 29 0 28 0;
#X connect 30 0 39 0;
#X connect 31 0 14 0;
#X connect 32 0 15 0;
#X connect 33 0 14 1;
#X connect 34 0 15 1;
#X connect 37 0 9 0;
#X connect 37 0 7 0;
#X connect 37 0 7 1;
#X connect 38 0 8 0;
#X connect 38 0 10 0;
#X connect 38 0 10 1;
#X connect 41 0 11 2;
#X connect 42 0 8 1;
#X connect 44 0 43 0;
#X connect 45 0 43 0;
#X connect 46 0 43 0;
#X connect 50 0 43 0;
#X restore 115 177 pd singleSampleDelays;
#X obj 115 226 output~;
#X obj 115 39 bng 15 250 50 0 empty empty empty 17 7 0 10 -262144 -1
-1;
#X msg 115 100 1;
#X msg 143 100 0;
#X obj 143 78 del 2;
#X obj 115 136 sig~;
#X text 150 136 impulse;
#X text 131 38 bang to excite;
#X obj 345 145 s f1;
#X text 285 97 frequency (Hz);
#X msg 425 205 0;
#X msg 345 115 698;
#X obj 340 235 s B1;
#X obj 425 236 s B2;
#X text 292 184 feedback FM coefficients;
#X text 322 258 real coeff;
#X text 407 258 imag coeff;
#X text 403 96 g (exp amp);
#X obj 436 146 s g;
#X msg 436 116 0.9999;
#X msg 471 138 1;
#X msg 340 206 0.99;
#N canvas 362 135 740 513 delayJennifer 1;
#X obj 63 469 outlet~;
#X obj 509 30 block~ 1;
#X obj 58 36 delread~ r1 0;
#X obj 213 33 delread~ i1 0;
#X obj 232 434 delwrite~ i1 100;
#X obj 92 432 delwrite~ r1 100;
#X obj 451 129 t f b;
#X obj 487 157 samplerate~;
#X obj 451 181 /;
#X floatatom 461 204 5 0 0 0 - - -, f 5;
#X obj 451 107 r f1;
#X text 451 226 f1 * T;
#X obj 291 160 *~;
#X obj 312 140 r B1;
#X obj 60 409 -~;
#X obj 60 387 *~;
#X obj 266 369 *~;
#X obj 309 369 *~;
#X obj 282 325 cos~;
#X obj 319 304 -~ 0.25;
#X obj 319 326 cos~;
#X text 355 327 i think the 2pi happens here in the cos~ object;
#X obj 102 389 *~;
#X obj 266 398 +~;
#X obj 76 133 *~;
#X obj 90 111 r g;
#X obj 205 133 *~;
#X obj 231 102 r g;
#X obj 20 97 inlet~;
#X obj 109 213 clip~ 0.1 2;
#X obj 111 169 *~ -0.5;
#X obj 111 191 +~ 1.5;
#X obj 172 175 r g;
#X obj 244 72 *~;
#X obj 80 81 *~;
#X obj 291 186 *~;
#X obj 291 214 +~;
#X connect 2 0 12 0;
#X connect 2 0 24 0;
#X connect 2 0 34 0;
#X connect 2 0 34 1;
#X connect 3 0 26 0;
#X connect 3 0 33 0;
#X connect 3 0 33 1;
#X connect 6 0 8 0;
#X connect 6 1 7 0;
#X connect 7 0 8 1;
#X connect 8 0 9 0;
#X connect 8 0 35 1;
#X connect 8 0 36 1;
#X connect 10 0 6 0;
#X connect 12 0 35 0;
#X connect 13 0 12 1;
#X connect 14 0 5 0;
#X connect 14 0 0 0;
#X connect 15 0 14 0;
#X connect 16 0 23 0;
#X connect 17 0 23 1;
#X connect 18 0 15 1;
#X connect 18 0 17 1;
#X connect 19 0 20 0;
#X connect 20 0 16 1;
#X connect 20 0 22 1;
#X connect 22 0 14 1;
#X connect 23 0 4 0;
#X connect 24 0 15 0;
#X connect 24 0 16 0;
#X connect 25 0 24 1;
#X connect 26 0 17 0;
#X connect 26 0 22 0;
#X connect 27 0 26 1;
#X connect 28 0 24 0;
#X connect 30 0 31 0;
#X connect 31 0 29 0;
#X connect 32 0 29 2;
#X connect 33 0 30 0;
#X connect 34 0 30 0;
#X connect 35 0 36 0;
#X connect 36 0 19 0;
#X connect 36 0 18 0;
#X restore 24 196 pd delayJennifer;
#X connect 2 0 3 0;
#X connect 2 0 5 0;
#X connect 3 0 6 0;
#X connect 4 0 6 0;
#X connect 5 0 4 0;
#X connect 6 0 23 0;
#X connect 6 0 0 0;
#X connect 11 0 14 0;
#X connect 12 0 9 0;
#X connect 20 0 19 0;
#X connect 21 0 19 0;
#X connect 22 0 13 0;
#X connect 23 0 1 0;
